<svg xmlns="http://www.w3.org/2000/svg" xmlns:xlink="http://www.w3.org/1999/xlink" width="64" height="64" stroke="#000" stroke-linecap="round" stroke-linejoin="round" fill="#fff" fill-rule="evenodd">
    <g stroke="#193540" class="B" stroke-width="1.25">
        <g stroke-linecap="butt" class="E C" fill-rule="nonzero" stroke-linejoin="miter">
            <g fill="#ea5a47">
                <path d="M10.795173763513 26.983472992203l9.37239-.00001"/>
                <path d="M20.167563763513 26.98439694986c3.2429 0 4.5077-2.7693 4.5077-5.8537m-13.8801 15.8175h3.558m14.758 0v-5.7534"/>
                <path d="M29.111749412955 31.195737518055c0-2.1308 1.1384-4.9829 4.818-4.9829m17.1593.3358h-8.1447"/>
            </g>
            <use xlink:href="#B" class="D" fill="#2d5f73"/>
            <path d="M34.205253489795 12.154619898855c-2.2931 2.2932-.2674 3.0152-4.0524 6.8015" fill="#ea5a47"/>
        </g>
        <path d="M10.795163763513 26.98439694986h9.3724m0 0c3.2429 0 4.5077-2.7693 4.5077-5.8537m-13.8801 15.8175h3.558m14.758 0v-5.7534m0 0c0-2.1308 1.1398-4.983 4.8182-4.983m17.1599.3369h-8.1453" class="C D" fill-rule="nonzero" fill="#2d5f73"/>
        <g fill="none">
            <use xlink:href="#B"/>
            <path d="M34.205253489795 12.154619898855c-2.2931 2.2932-.2674 3.0152-4.0524 6.8015"/>
        </g>
        <g transform="matrix(.7071070000000002 .7071067811865474 -.7071067811865474 .7071070000000002 44.65885574007726 24.50001124304662)" class="D C" fill-rule="nonzero" fill="#2d5f73">
            <g class="E" stroke-linejoin="miter">
                <path d="M8.675620792808 5.613561193571l-.0174 12.2155.6646 2.001-.0139 8.6738-3.3356.0058.0138-8.6744.6696-2.0017.0179-12.2173 2.001-.0027z"/>
                <use xlink:href="#C"/>
                <use xlink:href="#D"/>
            </g>
            <path d="M8.675620792808 5.652215972985l-.0174 12.1781.6646 2.0006-.0139 8.672-3.3356.0062.0138-8.673.6696-2.0029.0179-12.181h2.001z" fill="#f28c0f"/>
            <g fill="#f2f2f2">
                <use xlink:href="#C"/>
                <use xlink:href="#D"/>
            </g>
        </g>
    </g>
    <defs >
        <path id="B" d="M33.927907653873 36.9486s.157 9.9649-7.5522 9.9649h-15.5805c-6.8403 0-7.2769-9.9649 0-9.9649-6.8403 0-7.2769-9.9659 0-9.9659-7.751-6.8802 1.7796-12.8709 6.1687-8.2438-4.5558-6.2877 5.1013-9.7866 8.4224-4.7452-.3905-5.0414 4.6003-5.9502 9.2286-2.1712l-.4106.3322c2.2548-2.2542 9.6593-1.0282 9.6593 5.0434l-2.1069 1.5408c6.515-6.5148 13.4838 3.9745 8.0664 7.8108h1.2646c4.5084 0 5.0229 10.4002-1.2646 10.4002h-26.414"/>
        <path id="C" d="M4.162199091515.1852v5.4672h7.0266V2.5281s4.6867 0 6.2491 1.5615c-1.3669-2.1979-3.6741-3.6399-6.2481-3.9044-2.3355-.2469-4.6923-.2469-7.0283 0z"/>
        <path id="D" d="M2.062.671778610825l-.0175 4.4283c-.6175.4159-1.4241.4187-2.0445.0081l.0175-4.4283c.2702-.272.6377-.4248 1.0199-.4278s.752.1504 1.0246.4197z"/>
    </defs>
</svg>