<svg xmlns="http://www.w3.org/2000/svg" width="64" height="64" stroke="#000" stroke-linecap="round" stroke-linejoin="round" fill="#fff" fill-rule="evenodd">
    <path d="M2 31.5c0-16.619 13.3804-30 30-30s30 13.381 30 30-13.3796 30-30 30-30-13.38-30-30z" fill="#3f3f3f" stroke="#3f3f3f" fill-rule="nonzero"/>
    <path d="M2 31.5c0-16.619 13.3804-30 30-30s30 13.381 30 30-13.3796 30-30 30-30-13.38-30-30z" fill="none"/>
    <path d="M43.087500229877 51.749999536763c0-4.7991 3.8634-8.6625 8.6625-8.6625s8.6625 3.8634 8.6625 8.6625-3.8632 8.6625-8.6625 8.6625-8.6625-3.8632-8.6625-8.6625z" fill="#b1cc33" stroke="none" fill-rule="nonzero"/>
    <g fill="none">
        <path d="M51.750009768708 46.566585785981l-.00001 10.36639"/>
        <path d="M56.932975295713 51.749999884354h-10.3664"/>
        <path d="M43 51.75c0-4.8475 3.9025-8.75 8.75-8.75s8.75 3.9025 8.75 8.75-3.9025 8.75-8.75 8.75S43 56.5975 43 51.75z"/>
    </g>
</svg>