<svg xmlns="http://www.w3.org/2000/svg" width="64" height="64" stroke="#000" stroke-linecap="round"
     stroke-linejoin="round" fill="#fff" fill-rule="evenodd">
    <path d="M24.726246953059 25.059000878955v21.0671q0 .5114-.3287.8409-.3293.3294-.8415.3294h-2.3405q-.5133 0-.8417-.3294-.3293-.3295-.3293-.8409v-21.0671q0-.5132.3293-.8416.3284-.3291.8417-.3291h2.3405q.5122 0 .8415.3291.3287.3284.3287.8416zm9.3631 0v21.0671q0 .5114-.3294.8409-.3281.3294-.8414.3294h-2.3404q-.512 0-.8417-.3294-.3283-.3295-.3283-.8409v-21.0671q0-.5132.3283-.8416.3297-.3291.8417-.3291h2.3404q.5133 0 .8414.3291.3294.3284.3294.8416zm9.3637 0v21.0671q0 .5114-.3295.8409-.3293.3294-.8411.3294h-2.3414q-.5112 0-.8407-.3294-.3296-.3295-.3296-.8409v-21.0671q0-.5132.3296-.8416.3295-.3291.8407-.3291h2.3414q.5118 0 .8411.3291.3295.3284.3295.8416zm4.6811 26.4796v-34.6726h-32.771v34.6726q0 .8048.2563 1.4812.2558.6766.5308.9881.2732.311.3834.311h30.43q.1092 0 .3845-.311.2746-.3115.5304-.9881.2556-.6764.2556-1.4812zm-24.5781-39.3542h16.385l-1.7559-4.279q-.2558-.3291-.6212-.403h-11.5939q-.3665.0739-.622.403zm33.9416 1.1706v2.3403q0 .5132-.3298.8417-.3294.329-.8403.329h-3.5119v34.6726q0 3.0362-1.7192 5.2488-1.7193 2.2126-4.1328 2.2126h-30.43q-2.4141 0-4.133-2.1398-1.7195-2.1393-1.7195-5.1748v-34.8194h-3.5103q-.5134 0-.8415-.329-.3293-.3285-.3293-.8417v-2.3403q0-.5124.3293-.8417.3281-.3289.8415-.3289h11.3011l2.5601-6.1082q.5486-1.3528 1.9749-2.3044 1.4266-.9505 2.8892-.9505h11.7046q1.4629 0 2.8889.9505 1.4264.9516 1.9757 2.3044l2.5607 6.1082h11.3015q.5109 0 .8403.3289.3298.3293.3298.8417z"
          stroke="none" fill="#000"/>
</svg>