<svg xmlns="http://www.w3.org/2000/svg" xmlns:xlink="http://www.w3.org/1999/xlink" width="61" height="47" stroke="#000" stroke-linecap="round" stroke-linejoin="round" fill="#fff" fill-rule="evenodd">
    <g stroke="#193540" class="B" stroke-width="1.25">
        <g fill="#ea5a47" class="C D E" fill-rule="nonzero" stroke-linecap="butt" stroke-linejoin="miter">
            <path d="M7.076045548327 21.924935934482l11.41779-.00001"/>
            <path d="M18.493835548327 21.92556676377c3.9512 0 5.492-3.3737 5.492-7.131m-16.9098 19.2697h4.3347m17.9792 0v-7.0081"/>
            <path d="M29.390926237064 27.056981569779c0-2.5961 1.3866-6.0709 5.8696-6.0709m20.9048.4096h-9.9228"/>
        </g>
        <use xlink:href="#B" fill="#2d5f73" class="C D E" fill-rule="nonzero" stroke-linecap="butt" stroke-linejoin="miter"/>
        <path d="M35.596491647241 3.859112851104c-2.7937 2.7938-.3264 3.673-4.9372 8.2865" fill="#ea5a47" class="C D E" fill-rule="nonzero" stroke-linecap="butt" stroke-linejoin="miter"/>
        <path d="M7.076035548327 21.92556676377h11.4178m0 0c3.9512 0 5.492-3.3737 5.492-7.131m-16.9098 19.2697h4.3347m17.9792 0v-7.0081m0 0c0-2.5963 1.3891-6.071 5.8699-6.071m20.9064.4107h-9.9233" fill="#2d5f73" class="C" fill-rule="nonzero"/>
        <g fill="none">
            <use xlink:href="#B"/>
            <path d="M35.596491647241 3.859112851104c-2.7937 2.7938-.3264 3.673-4.9372 8.2865"/>
        </g>
    </g>
    <defs >
        <path id="B" d="M35.258206299325 34.065719227062s.1914 12.1398-9.2007 12.1398h-18.9816c-8.333 0-8.8653-12.1398 0-12.1398-8.333 0-8.8653-12.1421 0-12.1421-9.4428-8.3822 2.1681-15.68 7.5153-10.0431-5.5503-7.6604 6.2149-11.923 10.2609-5.7808-.4756-6.1422 5.6043-7.249 11.2432-2.6452l-.5001.4051c2.7469-2.7463 11.768-1.253 11.768 6.1443l-2.567 1.8766c7.9368-7.9365 16.4268 4.8422 9.8273 9.5161h1.5407c5.4926 0 6.1191 12.6703-1.5407 12.6703h-32.1804"/>
    </defs>
</svg>